# xmcd
#
# Track frame offsets: 
#        150
#        17463
#        43618
#        59871
#        76893
#        103919
#        123543
#        155431
#        175477
#        214837
#        232479
#        251900
#        271438
#        289427
#
# Disc length: 4326 seconds
#
# Revision: 0
# Processed by: cddbd v1.5.2PL0 Copyright (c) Steve Scherf et al.
# Submitted via: ExactAudioCopy v0.99pb5
#
DISCID=de10e40e
DTITLE=Lost Immigrants - Baptized
DYEAR=1900
DGENRE=Texas Country
TTITLE0=Get Lost
TTITLE1=Dixie Queen
TTITLE2=Weather of You
TTITLE3=Maybe in December
TTITLE4=Circle in My Hand
TTITLE5=Let's Drive
TTITLE6=Can't You See
TTITLE7=Baptized By Texas
TTITLE8=Genevieve
TTITLE9=Something Better
TTITLE10=Evangeliene
TTITLE11=Memories and Rust
TTITLE12=Never Been to Spain
TTITLE13=Judgement Day
EXTD=
EXTT0=
EXTT1=
EXTT2=
EXTT3=
EXTT4=
EXTT5=
EXTT6=
EXTT7=
EXTT8=
EXTT9=
EXTT10=
EXTT11=
EXTT12=
EXTT13=
PLAYORDER=
